<svg xmlns="http://www.w3.org/2000/svg" xmlns:xlink="http://www.w3.org/1999/xlink" width="60" zoomAndPan="magnify" viewBox="0 0 79.5 60" height="50" preserveAspectRatio="xMidYMid meet" version="1.0"><defs><g/><clipPath id="5f8cea35fa"><path d="M 0 0.1875 L 79 0.1875 L 79 29 L 0 29 Z M 0 0.1875 " clip-rule="nonzero"/></clipPath></defs><g clip-path="url(#5f8cea35fa)"><path fill="#00878a" d="M 37.222656 21.1875 C 36.625 21.074219 36.042969 20.957031 35.328125 20.824219 C 35.542969 22.054688 35.726562 23.199219 35.957031 24.328125 C 36.191406 25.472656 36.574219 26.554688 37.222656 27.582031 C 37.136719 27.550781 37.039062 27.515625 36.957031 27.46875 C 36.222656 26.984375 35.757812 26.273438 35.492188 25.472656 C 35.078125 24.277344 34.761719 23.066406 34.347656 21.871094 C 34 20.875 33.582031 19.910156 33.203125 18.929688 C 33.152344 18.945312 33.101562 18.945312 33.050781 18.964844 C 33.003906 19.046875 32.917969 19.113281 32.902344 19.210938 C 32.738281 19.859375 32.273438 20.078125 31.671875 20.257812 C 28.300781 21.320312 24.945312 22.417969 21.59375 23.53125 C 21.210938 23.664062 20.976562 23.628906 20.695312 23.296875 C 20.445312 23 20.082031 22.785156 19.75 22.550781 C 19.398438 22.300781 19 22.101562 18.667969 21.820312 C 18.285156 21.503906 18.320312 21.207031 18.769531 20.988281 C 19.5 20.640625 20.246094 20.308594 20.992188 20.011719 C 24.414062 18.648438 27.835938 17.304688 31.257812 15.957031 C 31.457031 15.875 31.671875 15.808594 31.589844 15.542969 C 31.492188 15.242188 31.757812 14.828125 31.257812 14.660156 C 28.019531 13.617188 24.746094 12.550781 21.492188 11.472656 C 21.191406 11.375 20.976562 11.40625 20.660156 11.589844 C 19.5 12.253906 18.238281 12.371094 16.992188 11.839844 C 16.226562 11.523438 16.078125 10.675781 16.574219 10.011719 C 16.660156 9.910156 16.660156 9.746094 16.675781 9.597656 C 16.691406 8.734375 16.691406 7.851562 16.691406 6.988281 C 16.691406 6.339844 16.875 5.792969 17.507812 5.476562 C 17.605469 5.425781 17.640625 5.246094 17.722656 5.128906 C 17.574219 5.144531 17.390625 5.09375 17.289062 5.160156 C 16.792969 5.59375 16.261719 6.007812 15.84375 6.523438 C 15.429688 7.039062 14.914062 7.335938 14.300781 7.503906 C 11.957031 8.085938 9.601562 8.667969 7.257812 9.230469 C 6.960938 9.296875 6.609375 9.347656 6.3125 9.296875 C 5.714844 9.179688 5.53125 8.515625 5.980469 8.101562 C 6.179688 7.917969 6.425781 7.769531 6.675781 7.6875 C 8.851562 6.839844 11.011719 5.976562 13.203125 5.160156 C 14.25 4.761719 15.332031 4.496094 16.476562 4.863281 C 16.808594 4.980469 17.488281 4.582031 17.65625 4.265625 C 17.921875 3.734375 18.550781 3.535156 19.234375 3.75 C 19.449219 3.816406 19.75 3.816406 19.964844 3.75 C 23.136719 2.652344 26.308594 1.523438 29.480469 0.429688 C 29.679688 0.363281 29.894531 0.3125 30.113281 0.277344 C 30.429688 0.230469 30.628906 0.378906 30.710938 0.660156 C 30.792969 0.941406 30.710938 1.175781 30.410156 1.292969 C 29.066406 1.789062 27.738281 2.320312 26.375 2.769531 C 24.382812 3.417969 22.371094 4.015625 20.363281 4.648438 C 20.128906 4.714844 19.898438 4.796875 19.664062 4.894531 C 19.566406 4.945312 19.5 5.078125 19.382812 5.226562 C 19.550781 5.261719 19.617188 5.277344 19.683594 5.277344 C 20.363281 5.277344 20.777344 5.609375 20.84375 6.289062 C 20.925781 7.039062 20.976562 7.785156 21.011719 8.550781 C 21.027344 8.847656 21.109375 8.964844 21.425781 9.015625 C 24.566406 9.53125 27.703125 10.078125 30.84375 10.609375 C 31.40625 10.707031 31.988281 10.808594 32.554688 10.890625 C 32.96875 10.957031 33.25 10.726562 33.402344 10.308594 C 34.179688 8.117188 34.945312 5.910156 35.742188 3.714844 C 35.941406 3.152344 36.421875 2.820312 36.972656 2.621094 C 38.699219 1.972656 40.425781 2.039062 42.152344 2.636719 C 42.917969 2.902344 43.367188 3.46875 43.632812 4.230469 C 44.195312 5.84375 44.777344 7.453125 45.359375 9.066406 C 45.527344 9.496094 45.691406 9.929688 45.890625 10.34375 C 46.140625 10.890625 46.371094 10.992188 46.921875 10.890625 C 48.664062 10.574219 50.425781 10.242188 52.167969 9.929688 C 53.964844 9.613281 55.757812 9.296875 57.566406 9 C 57.964844 8.933594 58.132812 8.800781 58.148438 8.367188 C 58.164062 7.6875 58.230469 7.003906 58.332031 6.339844 C 58.449219 5.59375 58.5625 5.527344 59.3125 5.410156 C 59.394531 5.394531 59.476562 5.378906 59.578125 5.359375 C 59.527344 4.960938 59.378906 4.761719 58.960938 4.648438 C 56.40625 3.867188 53.847656 3.050781 51.304688 2.238281 C 50.589844 2.003906 49.878906 1.757812 49.179688 1.492188 C 48.863281 1.375 48.515625 1.257812 48.597656 0.808594 C 48.679688 0.34375 48.898438 0.195312 49.378906 0.3125 C 50.058594 0.496094 50.742188 0.710938 51.40625 0.941406 C 53.648438 1.707031 55.875 2.472656 58.097656 3.25 C 58.515625 3.402344 58.878906 3.632812 59.277344 3.78125 C 59.476562 3.847656 59.726562 3.847656 59.910156 3.78125 C 60.308594 3.632812 60.671875 3.566406 61.089844 3.734375 C 61.667969 3.964844 61.753906 4.164062 61.421875 4.746094 C 61.785156 4.878906 62.132812 4.996094 62.484375 5.113281 C 62.566406 5.128906 62.667969 5.078125 62.75 5.046875 C 63.03125 4.945312 63.296875 4.761719 63.578125 4.761719 C 64.425781 4.746094 65.242188 4.863281 66.039062 5.195312 C 68.015625 5.976562 70.007812 6.738281 71.984375 7.519531 C 72.398438 7.6875 72.78125 7.917969 73.164062 8.167969 C 73.445312 8.351562 73.527344 8.648438 73.460938 8.980469 C 73.414062 9.265625 73.246094 9.445312 72.964844 9.414062 C 72.582031 9.378906 72.183594 9.347656 71.800781 9.265625 C 69.460938 8.699219 67.132812 8.101562 64.792969 7.570312 C 64.144531 7.421875 63.695312 7.121094 63.3125 6.625 C 62.867188 6.042969 62.335938 5.511719 61.503906 5.261719 C 61.667969 5.460938 61.753906 5.625 61.886719 5.742188 C 62.300781 6.109375 62.433594 6.574219 62.433594 7.105469 C 62.433594 7.734375 62.46875 8.351562 62.484375 8.980469 C 62.5 9.496094 62.515625 9.996094 62.832031 10.460938 C 63.164062 10.957031 63 11.390625 62.46875 11.707031 C 61.121094 12.484375 59.792969 12.285156 58.496094 11.605469 C 58.25 11.472656 58.050781 11.40625 57.78125 11.507812 C 55.109375 12.386719 52.453125 13.25 49.777344 14.128906 C 49.195312 14.3125 48.632812 14.527344 48.050781 14.710938 C 47.816406 14.792969 47.601562 14.859375 47.652344 15.175781 C 47.703125 15.476562 47.535156 15.824219 48 16.007812 C 49.992188 16.769531 51.96875 17.550781 53.929688 18.367188 C 56.105469 19.261719 58.25 20.191406 60.40625 21.121094 C 60.605469 21.207031 60.789062 21.355469 61.070312 21.519531 C 60.871094 21.671875 60.738281 21.789062 60.605469 21.855469 C 60.042969 22.167969 59.460938 22.46875 58.914062 22.816406 C 58.714844 22.933594 58.53125 23.148438 58.449219 23.363281 C 58.332031 23.664062 58.214844 23.746094 57.917969 23.648438 C 55.539062 22.867188 53.148438 22.101562 50.757812 21.339844 C 49.59375 20.972656 48.449219 20.558594 47.285156 20.242188 C 46.789062 20.109375 46.488281 19.894531 46.421875 19.378906 C 46.40625 19.277344 46.355469 19.195312 46.324219 19.0625 C 45.660156 19.746094 45.394531 20.542969 45.242188 21.40625 C 45.011719 22.683594 44.792969 23.980469 44.511719 25.242188 C 44.328125 26.054688 43.964844 26.804688 43.265625 27.335938 C 43.167969 27.417969 43.035156 27.46875 42.851562 27.582031 C 42.867188 27.417969 42.835938 27.316406 42.867188 27.269531 C 43.550781 26.386719 43.765625 25.339844 43.863281 24.261719 C 43.949219 23.28125 44.046875 22.300781 44.148438 21.320312 C 44.179688 20.988281 44.046875 20.875 43.714844 20.972656 C 43.382812 21.054688 43.035156 21.089844 42.703125 21.15625 C 42.984375 21.738281 42.984375 22.121094 42.667969 22.300781 C 42.535156 22.367188 42.269531 22.351562 42.152344 22.253906 C 41.839844 22.019531 41.855469 21.671875 42.105469 21.253906 C 40.425781 21.1875 38.816406 21.1875 37.222656 21.1875 Z M 20.246094 6.488281 C 19.214844 6.488281 18.335938 6.488281 17.40625 6.488281 C 17.421875 6.457031 17.390625 6.507812 17.390625 6.574219 C 17.375 7.636719 17.355469 8.683594 17.324219 9.746094 C 17.324219 10.011719 17.457031 10.09375 17.65625 10.078125 C 18.46875 10.0625 19.265625 10.042969 20.082031 9.996094 C 20.164062 9.996094 20.296875 9.777344 20.296875 9.664062 C 20.296875 9.164062 20.246094 8.683594 20.246094 8.183594 C 20.230469 7.636719 20.246094 7.070312 20.246094 6.488281 Z M 58.929688 6.507812 C 58.894531 7.4375 58.828125 8.449219 58.847656 9.480469 C 58.847656 9.664062 59.128906 9.976562 59.292969 9.996094 C 59.976562 10.0625 60.671875 10.042969 61.371094 10.0625 C 61.667969 10.0625 61.820312 9.878906 61.800781 9.578125 C 61.785156 8.648438 61.769531 7.734375 61.734375 6.804688 C 61.734375 6.707031 61.554688 6.523438 61.46875 6.523438 C 60.625 6.507812 59.792969 6.507812 58.929688 6.507812 Z M 15.082031 26.753906 C 15.445312 26.621094 15.777344 26.519531 16.078125 26.371094 C 16.308594 26.253906 16.476562 26.289062 16.640625 26.472656 C 17.191406 27.050781 17.074219 27.949219 16.359375 28.265625 C 14.78125 28.960938 13.136719 28.960938 11.527344 28.464844 C 10.710938 28.214844 10.496094 27.535156 10.8125 26.703125 C 10.929688 26.421875 10.980469 26.089844 10.996094 25.789062 C 11.027344 24.976562 11.011719 24.164062 11.011719 23.347656 C 11.011719 22.765625 11.210938 22.285156 11.691406 21.921875 C 11.84375 21.820312 11.925781 21.621094 12.042969 21.453125 C 11.875 21.355469 11.710938 21.207031 11.527344 21.15625 C 11.0625 21.023438 10.597656 20.90625 10.132812 20.824219 C 9.867188 20.773438 9.582031 20.808594 9.316406 20.789062 C 8.835938 20.757812 8.289062 20.824219 7.871094 20.640625 C 5.515625 19.59375 3.1875 18.464844 0.863281 17.371094 C 0.679688 17.285156 0.515625 17.152344 0.382812 17.003906 C 0 16.589844 0.117188 16.089844 0.664062 15.972656 C 1.0625 15.890625 1.527344 15.859375 1.894531 15.972656 C 4.71875 16.902344 7.574219 17.800781 10.164062 19.328125 C 10.546875 19.5625 10.894531 19.859375 11.261719 20.109375 C 11.59375 20.359375 11.910156 20.390625 12.339844 20.257812 C 12.753906 20.125 13.289062 20.160156 13.71875 20.277344 C 13.933594 20.324219 14.117188 20.757812 14.167969 21.039062 C 14.25 21.503906 14.53125 21.722656 14.980469 21.519531 C 15.066406 21.488281 15.132812 21.4375 15.214844 21.386719 C 15.796875 21.105469 16.375 21.039062 16.972656 21.355469 C 18.519531 22.152344 19.964844 23.066406 21.277344 24.195312 C 21.507812 24.394531 21.691406 24.644531 21.839844 24.894531 C 22.089844 25.273438 22.089844 25.691406 21.808594 26.074219 C 21.507812 26.472656 21.109375 26.6875 20.628906 26.539062 C 19.914062 26.304688 19.199219 26.054688 18.519531 25.738281 C 17.753906 25.390625 17.023438 24.976562 16.261719 24.609375 C 15.695312 24.328125 15.332031 23.898438 15.246094 23.25 C 15.132812 22.484375 14.648438 22.070312 13.917969 21.902344 C 13.886719 21.9375 13.851562 21.96875 13.820312 21.988281 C 13.933594 22.101562 14.050781 22.269531 14.183594 22.335938 C 14.664062 22.535156 14.898438 22.867188 14.898438 23.398438 C 14.914062 24.363281 14.980469 25.308594 15.015625 26.273438 C 15.046875 26.421875 15.066406 26.539062 15.082031 26.753906 Z M 14.417969 24.875 C 14.398438 24.875 14.382812 24.875 14.351562 24.875 C 14.351562 24.394531 14.332031 23.929688 14.351562 23.449219 C 14.367188 23.097656 14.21875 23.050781 13.902344 23.066406 C 13.304688 23.082031 12.6875 23.082031 12.089844 23.050781 C 11.792969 23.03125 11.660156 23.097656 11.675781 23.414062 C 11.675781 24.378906 11.660156 25.359375 11.675781 26.320312 C 11.675781 26.4375 11.84375 26.636719 11.941406 26.636719 C 12.65625 26.6875 13.355469 26.671875 14.066406 26.703125 C 14.351562 26.703125 14.398438 26.570312 14.398438 26.320312 C 14.417969 25.824219 14.417969 25.339844 14.417969 24.875 Z M 65.355469 21.902344 C 65.308594 21.820312 65.273438 21.789062 65.242188 21.738281 C 64.710938 21.222656 64.726562 20.789062 65.324219 20.375 C 65.820312 20.027344 66.371094 19.976562 66.917969 20.257812 C 67.367188 20.476562 68.246094 20.210938 68.496094 19.792969 C 68.628906 19.578125 68.828125 19.378906 69.042969 19.261719 C 71.71875 17.917969 74.523438 16.921875 77.347656 15.972656 C 77.546875 15.90625 77.78125 15.875 77.980469 15.859375 C 78.394531 15.808594 78.695312 15.972656 78.808594 16.390625 C 78.910156 16.789062 78.761719 17.121094 78.410156 17.304688 C 77.796875 17.636719 77.183594 17.933594 76.550781 18.234375 C 74.742188 19.078125 72.929688 19.910156 71.105469 20.742188 C 70.9375 20.808594 70.738281 20.808594 70.554688 20.824219 C 70.238281 20.839844 69.90625 20.773438 69.59375 20.824219 C 68.996094 20.90625 68.394531 21.105469 67.796875 21.15625 C 67.234375 21.207031 67.085938 21.488281 67.101562 21.988281 C 67.914062 22.136719 68.0625 22.75 68.097656 23.449219 C 68.128906 24.179688 68.113281 24.894531 68.113281 25.625 C 68.113281 26.074219 68.097656 26.519531 68.3125 26.96875 C 68.578125 27.582031 68.230469 28.296875 67.550781 28.496094 C 65.9375 28.980469 64.34375 28.914062 62.800781 28.230469 C 62.203125 27.964844 61.984375 26.9375 62.402344 26.40625 C 62.601562 26.140625 62.980469 26.105469 63.28125 26.386719 C 63.5625 26.671875 63.863281 26.652344 64.261719 26.585938 C 64.261719 25.875 64.261719 25.175781 64.261719 24.476562 C 64.261719 24.179688 64.261719 23.863281 64.277344 23.5625 C 64.277344 23.230469 64.359375 22.949219 64.777344 22.765625 C 64.644531 22.699219 64.476562 22.535156 64.394531 22.566406 C 64.226562 22.652344 63.960938 22.851562 63.976562 22.964844 C 64.078125 23.898438 63.496094 24.328125 62.78125 24.660156 C 61.488281 25.257812 60.175781 25.855469 58.863281 26.40625 C 58.214844 26.671875 57.699219 26.554688 57.417969 26.207031 C 57.117188 25.804688 57.101562 25.125 57.582031 24.644531 C 58.296875 23.929688 59.09375 23.265625 59.925781 22.652344 C 60.589844 22.167969 61.335938 21.789062 62.050781 21.386719 C 62.269531 21.273438 62.535156 21.171875 62.78125 21.121094 C 63.679688 20.941406 63.679688 20.941406 64.175781 21.703125 C 64.328125 21.9375 64.460938 22.035156 64.742188 21.953125 C 64.925781 21.9375 65.125 21.9375 65.355469 21.902344 Z M 64.824219 24.925781 C 64.792969 24.925781 64.777344 24.925781 64.742188 24.925781 C 64.742188 25.390625 64.726562 25.855469 64.757812 26.304688 C 64.757812 26.421875 64.925781 26.621094 65.023438 26.636719 C 65.707031 26.652344 66.386719 26.621094 67.066406 26.605469 C 67.382812 26.585938 67.5 26.4375 67.5 26.105469 C 67.464844 25.257812 67.464844 24.394531 67.5 23.546875 C 67.515625 23.183594 67.367188 23.097656 67.050781 23.097656 C 66.503906 23.097656 65.953125 23.117188 65.40625 23.066406 C 65.023438 23.03125 64.859375 23.164062 64.859375 23.53125 C 64.824219 23.996094 64.824219 24.460938 64.824219 24.925781 Z M 42.386719 24.976562 C 42.386719 26.304688 41.222656 27.367188 39.8125 27.367188 C 38.332031 27.367188 37.15625 26.238281 37.15625 24.84375 C 37.15625 23.496094 38.332031 22.386719 39.746094 22.402344 C 41.242188 22.417969 42.386719 23.53125 42.386719 24.976562 Z M 40.441406 25.140625 C 40.460938 24.808594 40.160156 24.527344 39.796875 24.511719 C 39.445312 24.496094 39.097656 24.777344 39.082031 25.058594 C 39.046875 25.390625 39.414062 25.738281 39.777344 25.738281 C 40.109375 25.757812 40.425781 25.457031 40.441406 25.140625 Z M 37.222656 21.1875 C 37.121094 21.1875 37.023438 21.1875 36.921875 21.222656 C 36.640625 21.320312 36.492188 21.65625 36.625 21.921875 C 36.757812 22.1875 36.957031 22.320312 37.253906 22.167969 C 37.503906 22.054688 37.554688 21.6875 37.386719 21.421875 C 37.355469 21.339844 37.289062 21.253906 37.222656 21.1875 Z M 37.222656 21.1875 " fill-opacity="1" fill-rule="nonzero"/></g><g fill="#00878a" fill-opacity="1"><g transform="translate(21.420653, 48.555897)"><g><path d="M 17.203125 -16.390625 L 17.203125 -13.109375 L 4.09375 -13.109375 L 4.09375 -9.828125 L 13.921875 -9.828125 C 14.523438 -9.828125 15.078125 -9.679688 15.578125 -9.390625 C 16.078125 -9.097656 16.472656 -8.703125 16.765625 -8.203125 C 17.054688 -7.703125 17.203125 -7.15625 17.203125 -6.5625 L 17.203125 -3.28125 C 17.203125 -2.675781 17.054688 -2.125 16.765625 -1.625 C 16.472656 -1.125 16.078125 -0.726562 15.578125 -0.4375 C 15.078125 -0.144531 14.523438 0 13.921875 0 L 0.8125 0 L 0.8125 -3.28125 L 13.921875 -3.28125 L 13.921875 -6.5625 L 4.09375 -6.5625 C 3.5 -6.5625 2.953125 -6.707031 2.453125 -7 C 1.953125 -7.289062 1.550781 -7.6875 1.25 -8.1875 C 0.957031 -8.6875 0.8125 -9.234375 0.8125 -9.828125 L 0.8125 -13.109375 C 0.8125 -13.710938 0.957031 -14.257812 1.25 -14.75 C 1.550781 -15.25 1.953125 -15.644531 2.453125 -15.9375 C 2.953125 -16.238281 3.5 -16.390625 4.09375 -16.390625 Z M 17.203125 -16.390625 "/></g></g></g><g fill="#b8003a" fill-opacity="1"><g transform="translate(39.447899, 48.555897)"><g><path d="M 4.09375 0 L 0.8125 0 L 0.8125 -14.75 C 0.8125 -15.195312 0.972656 -15.582031 1.296875 -15.90625 C 1.617188 -16.226562 2.003906 -16.390625 2.453125 -16.390625 C 2.910156 -16.390625 3.300781 -16.222656 3.625 -15.890625 L 13.921875 -5.59375 L 13.921875 -16.390625 L 17.203125 -16.390625 L 17.203125 -1.640625 C 17.203125 -1.191406 17.039062 -0.804688 16.71875 -0.484375 C 16.40625 -0.160156 16.019531 0 15.5625 0 C 15.113281 0 14.726562 -0.160156 14.40625 -0.484375 L 4.09375 -10.796875 Z M 4.09375 0 "/></g></g></g></svg>