<svg xmlns="http://www.w3.org/2000/svg" xmlns:xlink="http://www.w3.org/1999/xlink" width="306" zoomAndPan="magnify" viewBox="0 0 304.5 38.249999" height="51" preserveAspectRatio="xMidYMid meet" version="1.0"><defs><g/><clipPath id="b72fa4b314"><path d="M 2.683594 4.210938 L 80.652344 4.210938 L 80.652344 32.898438 L 2.683594 32.898438 Z M 2.683594 4.210938 " clip-rule="nonzero"/></clipPath></defs><g clip-path="url(#b72fa4b314)"><path fill="#b8003a" d="M 39.417969 24.941406 C 38.828125 24.824219 38.253906 24.710938 37.550781 24.578125 C 37.761719 25.792969 37.941406 26.921875 38.171875 28.039062 C 38.402344 29.167969 38.777344 30.234375 39.417969 31.25 C 39.335938 31.21875 39.238281 31.183594 39.15625 31.136719 C 38.433594 30.660156 37.976562 29.957031 37.710938 29.167969 C 37.304688 27.988281 36.992188 26.792969 36.582031 25.613281 C 36.238281 24.628906 35.828125 23.675781 35.449219 22.710938 C 35.402344 22.726562 35.351562 22.726562 35.304688 22.742188 C 35.253906 22.824219 35.171875 22.890625 35.15625 22.988281 C 34.992188 23.628906 34.53125 23.839844 33.941406 24.023438 C 30.613281 25.070312 27.304688 26.152344 23.992188 27.25 C 23.617188 27.382812 23.386719 27.347656 23.105469 27.019531 C 22.863281 26.726562 22.5 26.511719 22.171875 26.285156 C 21.828125 26.039062 21.433594 25.839844 21.109375 25.5625 C 20.730469 25.25 20.761719 24.957031 21.207031 24.742188 C 21.925781 24.398438 22.664062 24.070312 23.402344 23.777344 C 26.777344 22.429688 30.15625 21.105469 33.53125 19.777344 C 33.730469 19.695312 33.941406 19.628906 33.859375 19.367188 C 33.761719 19.070312 34.023438 18.660156 33.53125 18.496094 C 30.335938 17.464844 27.105469 16.414062 23.894531 15.351562 C 23.597656 15.25 23.386719 15.285156 23.074219 15.464844 C 21.925781 16.121094 20.679688 16.234375 19.453125 15.710938 C 18.699219 15.398438 18.550781 14.5625 19.042969 13.90625 C 19.125 13.808594 19.125 13.644531 19.140625 13.496094 C 19.15625 12.644531 19.15625 11.777344 19.15625 10.925781 C 19.15625 10.285156 19.335938 9.742188 19.960938 9.433594 C 20.058594 9.382812 20.089844 9.203125 20.171875 9.089844 C 20.027344 9.105469 19.84375 9.054688 19.746094 9.121094 C 19.253906 9.546875 18.730469 9.957031 18.320312 10.464844 C 17.910156 10.972656 17.402344 11.269531 16.796875 11.433594 C 14.484375 12.007812 12.15625 12.578125 9.847656 13.136719 C 9.550781 13.203125 9.207031 13.25 8.910156 13.203125 C 8.320312 13.089844 8.140625 12.433594 8.582031 12.023438 C 8.78125 11.84375 9.027344 11.695312 9.273438 11.613281 C 11.417969 10.777344 13.550781 9.925781 15.714844 9.121094 C 16.746094 8.726562 17.8125 8.464844 18.945312 8.824219 C 19.273438 8.941406 19.945312 8.546875 20.109375 8.234375 C 20.371094 7.710938 20.992188 7.515625 21.664062 7.726562 C 21.878906 7.792969 22.171875 7.792969 22.386719 7.726562 C 25.515625 6.644531 28.648438 5.53125 31.777344 4.449219 C 31.976562 4.382812 32.1875 4.335938 32.402344 4.300781 C 32.714844 4.253906 32.910156 4.398438 32.992188 4.679688 C 33.074219 4.957031 32.992188 5.1875 32.695312 5.300781 C 31.367188 5.792969 30.058594 6.316406 28.714844 6.761719 C 26.746094 7.398438 24.761719 7.988281 22.78125 8.613281 C 22.550781 8.679688 22.320312 8.761719 22.089844 8.859375 C 21.992188 8.90625 21.925781 9.039062 21.8125 9.1875 C 21.976562 9.21875 22.042969 9.234375 22.105469 9.234375 C 22.78125 9.234375 23.1875 9.5625 23.253906 10.234375 C 23.335938 10.972656 23.386719 11.710938 23.417969 12.464844 C 23.433594 12.761719 23.515625 12.875 23.828125 12.925781 C 26.925781 13.433594 30.023438 13.972656 33.121094 14.496094 C 33.679688 14.597656 34.253906 14.695312 34.8125 14.777344 C 35.222656 14.84375 35.5 14.613281 35.648438 14.203125 C 36.417969 12.039062 37.171875 9.859375 37.957031 7.695312 C 38.15625 7.136719 38.628906 6.808594 39.171875 6.613281 C 40.875 5.972656 42.582031 6.039062 44.285156 6.628906 C 45.039062 6.890625 45.484375 7.449219 45.746094 8.203125 C 46.300781 9.792969 46.875 11.382812 47.449219 12.972656 C 47.613281 13.398438 47.777344 13.824219 47.972656 14.234375 C 48.21875 14.777344 48.449219 14.875 48.992188 14.777344 C 50.710938 14.464844 52.449219 14.136719 54.171875 13.824219 C 55.941406 13.515625 57.710938 13.203125 59.496094 12.90625 C 59.890625 12.84375 60.054688 12.710938 60.070312 12.285156 C 60.089844 11.613281 60.152344 10.941406 60.253906 10.285156 C 60.367188 9.546875 60.480469 9.480469 61.21875 9.367188 C 61.300781 9.351562 61.382812 9.335938 61.480469 9.316406 C 61.433594 8.925781 61.285156 8.726562 60.875 8.613281 C 58.351562 7.84375 55.824219 7.039062 53.316406 6.234375 C 52.613281 6.007812 51.910156 5.761719 51.21875 5.5 C 50.910156 5.382812 50.5625 5.269531 50.644531 4.828125 C 50.726562 4.367188 50.941406 4.21875 51.417969 4.335938 C 52.089844 4.515625 52.761719 4.726562 53.417969 4.957031 C 55.628906 5.710938 57.824219 6.464844 60.023438 7.234375 C 60.433594 7.382812 60.792969 7.613281 61.1875 7.761719 C 61.382812 7.824219 61.628906 7.824219 61.808594 7.761719 C 62.203125 7.613281 62.5625 7.546875 62.972656 7.710938 C 63.546875 7.941406 63.628906 8.136719 63.300781 8.710938 C 63.660156 8.84375 64.003906 8.957031 64.351562 9.070312 C 64.433594 9.089844 64.53125 9.039062 64.613281 9.007812 C 64.890625 8.90625 65.152344 8.726562 65.433594 8.726562 C 66.269531 8.710938 67.070312 8.824219 67.859375 9.152344 C 69.808594 9.925781 71.777344 10.679688 73.726562 11.449219 C 74.136719 11.613281 74.511719 11.84375 74.890625 12.089844 C 75.167969 12.269531 75.25 12.5625 75.183594 12.890625 C 75.136719 13.171875 74.972656 13.351562 74.695312 13.316406 C 74.316406 13.285156 73.921875 13.25 73.546875 13.171875 C 71.234375 12.613281 68.941406 12.023438 66.628906 11.496094 C 65.988281 11.351562 65.546875 11.054688 65.167969 10.5625 C 64.726562 9.988281 64.203125 9.464844 63.382812 9.21875 C 63.546875 9.417969 63.628906 9.578125 63.761719 9.695312 C 64.167969 10.054688 64.300781 10.515625 64.300781 11.039062 C 64.300781 11.660156 64.332031 12.269531 64.351562 12.890625 C 64.367188 13.398438 64.382812 13.890625 64.695312 14.351562 C 65.023438 14.84375 64.859375 15.269531 64.332031 15.578125 C 63.007812 16.351562 61.695312 16.152344 60.414062 15.480469 C 60.171875 15.351562 59.972656 15.285156 59.710938 15.382812 C 57.070312 16.25 54.449219 17.105469 51.808594 17.972656 C 51.234375 18.152344 50.679688 18.367188 50.105469 18.546875 C 49.875 18.628906 49.664062 18.695312 49.710938 19.003906 C 49.761719 19.300781 49.597656 19.644531 50.054688 19.824219 C 52.023438 20.578125 53.972656 21.351562 55.90625 22.152344 C 58.054688 23.039062 60.171875 23.957031 62.300781 24.875 C 62.496094 24.957031 62.679688 25.101562 62.957031 25.265625 C 62.761719 25.414062 62.628906 25.53125 62.496094 25.59375 C 61.941406 25.90625 61.367188 26.203125 60.824219 26.546875 C 60.628906 26.660156 60.449219 26.875 60.367188 27.085938 C 60.253906 27.382812 60.136719 27.464844 59.84375 27.367188 C 57.5 26.59375 55.136719 25.839844 52.777344 25.085938 C 51.628906 24.726562 50.5 24.316406 49.351562 24.003906 C 48.859375 23.875 48.5625 23.660156 48.5 23.152344 C 48.480469 23.054688 48.433594 22.972656 48.402344 22.839844 C 47.746094 23.511719 47.484375 24.300781 47.335938 25.152344 C 47.105469 26.414062 46.890625 27.695312 46.613281 28.9375 C 46.433594 29.742188 46.074219 30.480469 45.382812 31.003906 C 45.285156 31.085938 45.15625 31.136719 44.972656 31.25 C 44.992188 31.085938 44.957031 30.988281 44.992188 30.9375 C 45.664062 30.070312 45.875 29.039062 45.972656 27.972656 C 46.054688 27.003906 46.15625 26.039062 46.253906 25.070312 C 46.285156 24.742188 46.15625 24.628906 45.828125 24.726562 C 45.5 24.808594 45.15625 24.839844 44.828125 24.90625 C 45.105469 25.480469 45.105469 25.859375 44.792969 26.039062 C 44.664062 26.101562 44.402344 26.085938 44.285156 25.988281 C 43.972656 25.757812 43.992188 25.414062 44.238281 25.003906 C 42.582031 24.941406 40.992188 24.941406 39.417969 24.941406 Z M 22.664062 10.433594 C 21.648438 10.433594 20.78125 10.433594 19.863281 10.433594 C 19.878906 10.398438 19.84375 10.449219 19.84375 10.515625 C 19.828125 11.5625 19.8125 12.597656 19.78125 13.644531 C 19.78125 13.90625 19.910156 13.988281 20.109375 13.972656 C 20.910156 13.957031 21.699219 13.941406 22.5 13.890625 C 22.582031 13.890625 22.714844 13.679688 22.714844 13.5625 C 22.714844 13.070312 22.664062 12.597656 22.664062 12.105469 C 22.648438 11.5625 22.664062 11.007812 22.664062 10.433594 Z M 60.84375 10.449219 C 60.808594 11.367188 60.742188 12.367188 60.761719 13.382812 C 60.761719 13.5625 61.039062 13.875 61.203125 13.890625 C 61.875 13.957031 62.5625 13.941406 63.25 13.957031 C 63.546875 13.957031 63.695312 13.777344 63.679688 13.480469 C 63.660156 12.5625 63.644531 11.660156 63.613281 10.742188 C 63.613281 10.644531 63.433594 10.464844 63.351562 10.464844 C 62.515625 10.449219 61.695312 10.449219 60.84375 10.449219 Z M 17.566406 30.429688 C 17.925781 30.300781 18.253906 30.203125 18.550781 30.054688 C 18.78125 29.9375 18.945312 29.972656 19.109375 30.152344 C 19.648438 30.726562 19.535156 31.609375 18.828125 31.921875 C 17.273438 32.609375 15.648438 32.609375 14.058594 32.121094 C 13.253906 31.875 13.042969 31.203125 13.355469 30.382812 C 13.46875 30.101562 13.519531 29.773438 13.535156 29.480469 C 13.566406 28.675781 13.550781 27.875 13.550781 27.070312 C 13.550781 26.496094 13.746094 26.019531 14.222656 25.660156 C 14.371094 25.5625 14.453125 25.367188 14.566406 25.203125 C 14.402344 25.101562 14.238281 24.957031 14.058594 24.90625 C 13.601562 24.777344 13.140625 24.660156 12.683594 24.578125 C 12.417969 24.53125 12.140625 24.5625 11.878906 24.546875 C 11.402344 24.511719 10.863281 24.578125 10.453125 24.398438 C 8.125 23.367188 5.828125 22.25 3.535156 21.167969 C 3.355469 21.085938 3.191406 20.957031 3.058594 20.808594 C 2.683594 20.398438 2.796875 19.90625 3.339844 19.792969 C 3.730469 19.710938 4.191406 19.675781 4.550781 19.792969 C 7.339844 20.710938 10.15625 21.59375 12.714844 23.105469 C 13.089844 23.332031 13.4375 23.628906 13.796875 23.875 C 14.125 24.121094 14.4375 24.152344 14.863281 24.023438 C 15.273438 23.890625 15.796875 23.921875 16.222656 24.039062 C 16.4375 24.085938 16.617188 24.511719 16.664062 24.792969 C 16.746094 25.25 17.027344 25.464844 17.46875 25.265625 C 17.550781 25.234375 17.617188 25.183594 17.699219 25.136719 C 18.273438 24.859375 18.84375 24.792969 19.433594 25.101562 C 20.960938 25.890625 22.386719 26.792969 23.679688 27.90625 C 23.910156 28.101562 24.089844 28.347656 24.238281 28.59375 C 24.484375 28.972656 24.484375 29.382812 24.207031 29.757812 C 23.910156 30.152344 23.515625 30.367188 23.042969 30.21875 C 22.335938 29.988281 21.632812 29.742188 20.960938 29.429688 C 20.207031 29.085938 19.484375 28.675781 18.730469 28.316406 C 18.171875 28.039062 17.8125 27.613281 17.730469 26.972656 C 17.617188 26.21875 17.140625 25.808594 16.417969 25.644531 C 16.386719 25.675781 16.355469 25.710938 16.320312 25.726562 C 16.4375 25.839844 16.550781 26.003906 16.679688 26.070312 C 17.15625 26.265625 17.386719 26.59375 17.386719 27.121094 C 17.402344 28.070312 17.46875 29.003906 17.5 29.957031 C 17.535156 30.101562 17.550781 30.21875 17.566406 30.429688 Z M 16.910156 28.578125 C 16.894531 28.578125 16.878906 28.578125 16.84375 28.578125 C 16.84375 28.101562 16.828125 27.644531 16.84375 27.167969 C 16.863281 26.824219 16.714844 26.777344 16.402344 26.792969 C 15.8125 26.808594 15.207031 26.808594 14.617188 26.777344 C 14.320312 26.757812 14.191406 26.824219 14.207031 27.136719 C 14.207031 28.085938 14.191406 29.054688 14.207031 30.003906 C 14.207031 30.121094 14.371094 30.316406 14.46875 30.316406 C 15.171875 30.367188 15.863281 30.347656 16.566406 30.382812 C 16.84375 30.382812 16.894531 30.25 16.894531 30.003906 C 16.910156 29.511719 16.910156 29.039062 16.910156 28.578125 Z M 67.1875 25.644531 C 67.136719 25.5625 67.105469 25.53125 67.070312 25.480469 C 66.546875 24.972656 66.5625 24.546875 67.152344 24.136719 C 67.644531 23.792969 68.1875 23.742188 68.726562 24.023438 C 69.167969 24.234375 70.039062 23.972656 70.285156 23.5625 C 70.414062 23.347656 70.613281 23.152344 70.824219 23.039062 C 73.464844 21.710938 76.234375 20.726562 79.019531 19.792969 C 79.21875 19.726562 79.445312 19.695312 79.644531 19.675781 C 80.054688 19.628906 80.347656 19.792969 80.464844 20.203125 C 80.5625 20.59375 80.414062 20.921875 80.070312 21.105469 C 79.464844 21.429688 78.855469 21.726562 78.234375 22.023438 C 76.449219 22.859375 74.660156 23.675781 72.859375 24.496094 C 72.695312 24.5625 72.496094 24.5625 72.316406 24.578125 C 72.003906 24.59375 71.675781 24.53125 71.367188 24.578125 C 70.777344 24.660156 70.1875 24.859375 69.59375 24.90625 C 69.039062 24.957031 68.890625 25.234375 68.90625 25.726562 C 69.710938 25.875 69.859375 26.480469 69.890625 27.167969 C 69.921875 27.890625 69.90625 28.59375 69.90625 29.316406 C 69.90625 29.757812 69.890625 30.203125 70.105469 30.644531 C 70.367188 31.25 70.023438 31.957031 69.351562 32.152344 C 67.757812 32.628906 66.1875 32.5625 64.660156 31.890625 C 64.070312 31.628906 63.859375 30.609375 64.269531 30.085938 C 64.464844 29.824219 64.84375 29.792969 65.136719 30.070312 C 65.414062 30.347656 65.710938 30.332031 66.105469 30.265625 C 66.105469 29.5625 66.105469 28.875 66.105469 28.183594 C 66.105469 27.890625 66.105469 27.578125 66.121094 27.285156 C 66.121094 26.957031 66.203125 26.675781 66.613281 26.496094 C 66.480469 26.429688 66.316406 26.265625 66.234375 26.300781 C 66.070312 26.382812 65.808594 26.578125 65.824219 26.695312 C 65.921875 27.613281 65.351562 28.039062 64.644531 28.367188 C 63.367188 28.957031 62.070312 29.546875 60.777344 30.085938 C 60.136719 30.347656 59.628906 30.234375 59.351562 29.890625 C 59.054688 29.496094 59.039062 28.824219 59.515625 28.347656 C 60.21875 27.644531 61.007812 26.988281 61.824219 26.382812 C 62.480469 25.90625 63.21875 25.53125 63.925781 25.136719 C 64.136719 25.019531 64.398438 24.921875 64.644531 24.875 C 65.53125 24.695312 65.53125 24.695312 66.023438 25.449219 C 66.167969 25.675781 66.300781 25.777344 66.578125 25.695312 C 66.757812 25.675781 66.957031 25.675781 67.1875 25.644531 Z M 66.660156 28.628906 C 66.628906 28.628906 66.613281 28.628906 66.578125 28.628906 C 66.578125 29.085938 66.5625 29.546875 66.597656 29.988281 C 66.597656 30.101562 66.757812 30.300781 66.859375 30.316406 C 67.53125 30.332031 68.203125 30.300781 68.875 30.285156 C 69.1875 30.265625 69.300781 30.121094 69.300781 29.792969 C 69.269531 28.957031 69.269531 28.101562 69.300781 27.265625 C 69.316406 26.90625 69.167969 26.824219 68.859375 26.824219 C 68.316406 26.824219 67.777344 26.839844 67.234375 26.792969 C 66.859375 26.757812 66.695312 26.890625 66.695312 27.25 C 66.660156 27.710938 66.660156 28.167969 66.660156 28.628906 Z M 44.515625 28.675781 C 44.515625 29.988281 43.367188 31.039062 41.976562 31.039062 C 40.515625 31.039062 39.351562 29.921875 39.351562 28.546875 C 39.351562 27.21875 40.515625 26.121094 41.910156 26.136719 C 43.382812 26.152344 44.515625 27.25 44.515625 28.675781 Z M 42.597656 28.839844 C 42.613281 28.511719 42.320312 28.234375 41.957031 28.21875 C 41.613281 28.203125 41.269531 28.480469 41.253906 28.757812 C 41.21875 29.085938 41.582031 29.429688 41.941406 29.429688 C 42.269531 29.449219 42.582031 29.152344 42.597656 28.839844 Z M 39.417969 24.941406 C 39.320312 24.941406 39.222656 24.941406 39.121094 24.972656 C 38.84375 25.070312 38.695312 25.398438 38.828125 25.660156 C 38.957031 25.921875 39.15625 26.054688 39.449219 25.90625 C 39.695312 25.792969 39.746094 25.429688 39.582031 25.167969 C 39.546875 25.085938 39.484375 25.003906 39.417969 24.941406 Z M 39.417969 24.941406 " fill-opacity="1" fill-rule="nonzero"/></g><g fill="#009d9a" fill-opacity="1"><g transform="translate(80.612274, 25.781581)"><g><path d="M 16.984375 -16.171875 L 16.984375 -12.9375 L 4.046875 -12.9375 L 4.046875 -9.703125 L 13.75 -9.703125 C 14.34375 -9.703125 14.882812 -9.554688 15.375 -9.265625 C 15.863281 -8.972656 16.253906 -8.582031 16.546875 -8.09375 C 16.835938 -7.601562 16.984375 -7.0625 16.984375 -6.46875 L 16.984375 -3.234375 C 16.984375 -2.640625 16.835938 -2.097656 16.546875 -1.609375 C 16.253906 -1.117188 15.863281 -0.726562 15.375 -0.4375 C 14.882812 -0.144531 14.34375 0 13.75 0 L 0.8125 0 L 0.8125 -3.234375 L 13.75 -3.234375 L 13.75 -6.46875 L 4.046875 -6.46875 C 3.453125 -6.46875 2.90625 -6.613281 2.40625 -6.90625 C 1.914062 -7.195312 1.523438 -7.585938 1.234375 -8.078125 C 0.953125 -8.566406 0.8125 -9.109375 0.8125 -9.703125 L 0.8125 -12.9375 C 0.8125 -13.53125 0.953125 -14.070312 1.234375 -14.5625 C 1.523438 -15.0625 1.914062 -15.453125 2.40625 -15.734375 C 2.90625 -16.023438 3.453125 -16.171875 4.046875 -16.171875 Z M 16.984375 -16.171875 "/></g></g></g><g fill="#009d9a" fill-opacity="1"><g transform="translate(98.403153, 25.781581)"><g><path d="M 13.75 -3.234375 L 13.75 -16.171875 L 16.984375 -16.171875 L 16.984375 -3.234375 C 16.984375 -2.640625 16.835938 -2.097656 16.546875 -1.609375 C 16.253906 -1.117188 15.863281 -0.726562 15.375 -0.4375 C 14.882812 -0.144531 14.34375 0 13.75 0 L 4.046875 0 C 3.453125 0 2.90625 -0.144531 2.40625 -0.4375 C 1.914062 -0.726562 1.523438 -1.117188 1.234375 -1.609375 C 0.953125 -2.097656 0.8125 -2.640625 0.8125 -3.234375 L 0.8125 -16.171875 L 4.046875 -16.171875 L 4.046875 -3.234375 L 7.28125 -3.234375 L 7.28125 -16.171875 L 10.515625 -16.171875 L 10.515625 -3.234375 Z M 13.75 -3.234375 "/></g></g></g><g fill="#009d9a" fill-opacity="1"><g transform="translate(116.194033, 25.781581)"><g><path d="M 4.046875 -16.171875 L 13.75 -16.171875 C 14.34375 -16.171875 14.882812 -16.023438 15.375 -15.734375 C 15.863281 -15.453125 16.253906 -15.0625 16.546875 -14.5625 C 16.835938 -14.070312 16.984375 -13.53125 16.984375 -12.9375 L 16.984375 0 L 13.75 0 L 13.75 -6.46875 L 4.046875 -6.46875 L 4.046875 0 L 0.8125 0 L 0.8125 -12.9375 C 0.8125 -13.53125 0.953125 -14.070312 1.234375 -14.5625 C 1.523438 -15.0625 1.914062 -15.453125 2.40625 -15.734375 C 2.90625 -16.023438 3.453125 -16.171875 4.046875 -16.171875 Z M 4.046875 -12.9375 L 4.046875 -9.703125 L 13.75 -9.703125 L 13.75 -12.9375 Z M 4.046875 -12.9375 "/></g></g></g><g fill="#009d9a" fill-opacity="1"><g transform="translate(133.984912, 25.781581)"><g><path d="M 16.984375 -12.9375 L 16.984375 -9.703125 C 16.984375 -9.109375 16.835938 -8.566406 16.546875 -8.078125 C 16.253906 -7.585938 15.863281 -7.195312 15.375 -6.90625 C 14.882812 -6.613281 14.34375 -6.46875 13.75 -6.46875 L 10.515625 -6.46875 L 13.75 -3.234375 L 16.984375 -3.234375 L 16.984375 0 L 13.109375 0 C 12.648438 0 12.253906 -0.160156 11.921875 -0.484375 L 5.9375 -6.46875 L 4.046875 -6.46875 L 4.046875 0 L 0.8125 0 L 0.8125 -16.171875 L 13.75 -16.171875 C 14.34375 -16.171875 14.882812 -16.023438 15.375 -15.734375 C 15.863281 -15.453125 16.253906 -15.0625 16.546875 -14.5625 C 16.835938 -14.070312 16.984375 -13.53125 16.984375 -12.9375 Z M 13.75 -12.9375 L 4.046875 -12.9375 L 4.046875 -9.703125 L 13.75 -9.703125 Z M 13.75 -12.9375 "/></g></g></g><g fill="#009d9a" fill-opacity="1"><g transform="translate(151.775791, 25.781581)"><g><path d="M 4.046875 -16.171875 L 13.75 -16.171875 C 14.34375 -16.171875 14.882812 -16.023438 15.375 -15.734375 C 15.863281 -15.453125 16.253906 -15.0625 16.546875 -14.5625 C 16.835938 -14.070312 16.984375 -13.53125 16.984375 -12.9375 L 16.984375 0 L 13.75 0 L 13.75 -12.9375 L 10.515625 -12.9375 L 10.515625 0 L 7.28125 0 L 7.28125 -12.9375 L 4.046875 -12.9375 L 4.046875 0 L 0.8125 0 L 0.8125 -12.9375 C 0.8125 -13.53125 0.953125 -14.070312 1.234375 -14.5625 C 1.523438 -15.0625 1.914062 -15.453125 2.40625 -15.734375 C 2.90625 -16.023438 3.453125 -16.171875 4.046875 -16.171875 Z M 4.046875 -16.171875 "/></g></g></g><g fill="#b8003a" fill-opacity="1"><g transform="translate(169.571102, 25.781581)"><g><path d="M 4.046875 0 L 0.8125 0 L 0.8125 -14.5625 C 0.8125 -15 0.96875 -15.375 1.28125 -15.6875 C 1.601562 -16.007812 1.984375 -16.171875 2.421875 -16.171875 C 2.867188 -16.171875 3.253906 -16.007812 3.578125 -15.6875 L 13.75 -5.515625 L 13.75 -16.171875 L 16.984375 -16.171875 L 16.984375 -1.625 C 16.984375 -1.175781 16.820312 -0.789062 16.5 -0.46875 C 16.1875 -0.15625 15.804688 0 15.359375 0 C 14.921875 0 14.539062 -0.160156 14.21875 -0.484375 L 4.046875 -10.65625 Z M 4.046875 0 "/></g></g></g><g fill="#b8003a" fill-opacity="1"><g transform="translate(187.361981, 25.781581)"><g><path d="M 16.984375 -16.171875 L 16.984375 -12.9375 L 4.046875 -12.9375 L 4.046875 -9.703125 L 16.984375 -9.703125 L 16.984375 -6.46875 L 4.046875 -6.46875 L 4.046875 -3.234375 L 16.984375 -3.234375 L 16.984375 0 L 4.046875 0 C 3.453125 0 2.90625 -0.144531 2.40625 -0.4375 C 1.914062 -0.726562 1.523438 -1.117188 1.234375 -1.609375 C 0.953125 -2.097656 0.8125 -2.640625 0.8125 -3.234375 L 0.8125 -12.9375 C 0.8125 -13.53125 0.953125 -14.070312 1.234375 -14.5625 C 1.523438 -15.0625 1.914062 -15.453125 2.40625 -15.734375 C 2.90625 -16.023438 3.453125 -16.171875 4.046875 -16.171875 Z M 16.984375 -16.171875 "/></g></g></g><g fill="#b8003a" fill-opacity="1"><g transform="translate(205.152861, 25.781581)"><g><path d="M 16.984375 -16.171875 L 16.984375 -12.9375 L 10.515625 -12.9375 L 10.515625 0 L 7.28125 0 L 7.28125 -12.9375 L 0.8125 -12.9375 L 0.8125 -16.171875 Z M 16.984375 -16.171875 "/></g></g></g><g fill="#b8003a" fill-opacity="1"><g transform="translate(222.94374, 25.781581)"><g><path d="M 13.75 -3.234375 L 13.75 -16.171875 L 16.984375 -16.171875 L 16.984375 -3.234375 C 16.984375 -2.640625 16.835938 -2.097656 16.546875 -1.609375 C 16.253906 -1.117188 15.863281 -0.726562 15.375 -0.4375 C 14.882812 -0.144531 14.34375 0 13.75 0 L 4.046875 0 C 3.453125 0 2.90625 -0.144531 2.40625 -0.4375 C 1.914062 -0.726562 1.523438 -1.117188 1.234375 -1.609375 C 0.953125 -2.097656 0.8125 -2.640625 0.8125 -3.234375 L 0.8125 -16.171875 L 4.046875 -16.171875 L 4.046875 -3.234375 L 7.28125 -3.234375 L 7.28125 -16.171875 L 10.515625 -16.171875 L 10.515625 -3.234375 Z M 13.75 -3.234375 "/></g></g></g><g fill="#b8003a" fill-opacity="1"><g transform="translate(240.734619, 25.781581)"><g><path d="M 13.75 0 L 4.046875 0 C 3.453125 0 2.90625 -0.144531 2.40625 -0.4375 C 1.914062 -0.726562 1.523438 -1.117188 1.234375 -1.609375 C 0.953125 -2.097656 0.8125 -2.640625 0.8125 -3.234375 L 0.8125 -12.9375 C 0.8125 -13.53125 0.953125 -14.070312 1.234375 -14.5625 C 1.523438 -15.0625 1.914062 -15.453125 2.40625 -15.734375 C 2.90625 -16.023438 3.453125 -16.171875 4.046875 -16.171875 L 13.75 -16.171875 C 14.34375 -16.171875 14.882812 -16.023438 15.375 -15.734375 C 15.863281 -15.453125 16.253906 -15.0625 16.546875 -14.5625 C 16.835938 -14.070312 16.984375 -13.53125 16.984375 -12.9375 L 16.984375 -3.234375 C 16.984375 -2.648438 16.835938 -2.113281 16.546875 -1.625 C 16.253906 -1.132812 15.863281 -0.738281 15.375 -0.4375 C 14.894531 -0.144531 14.351562 0 13.75 0 Z M 4.046875 -12.9375 L 4.046875 -3.234375 L 13.75 -3.234375 L 13.75 -12.9375 Z M 4.046875 -12.9375 "/></g></g></g><g fill="#b8003a" fill-opacity="1"><g transform="translate(258.525498, 25.781581)"><g><path d="M 16.984375 -12.9375 L 16.984375 -9.703125 C 16.984375 -9.109375 16.835938 -8.566406 16.546875 -8.078125 C 16.253906 -7.585938 15.863281 -7.195312 15.375 -6.90625 C 14.882812 -6.613281 14.34375 -6.46875 13.75 -6.46875 L 10.515625 -6.46875 L 13.75 -3.234375 L 16.984375 -3.234375 L 16.984375 0 L 13.109375 0 C 12.648438 0 12.253906 -0.160156 11.921875 -0.484375 L 5.9375 -6.46875 L 4.046875 -6.46875 L 4.046875 0 L 0.8125 0 L 0.8125 -16.171875 L 13.75 -16.171875 C 14.34375 -16.171875 14.882812 -16.023438 15.375 -15.734375 C 15.863281 -15.453125 16.253906 -15.0625 16.546875 -14.5625 C 16.835938 -14.070312 16.984375 -13.53125 16.984375 -12.9375 Z M 13.75 -12.9375 L 4.046875 -12.9375 L 4.046875 -9.703125 L 13.75 -9.703125 Z M 13.75 -12.9375 "/></g></g></g><g fill="#b8003a" fill-opacity="1"><g transform="translate(276.316378, 25.781581)"><g><path d="M 16.984375 -16.171875 L 16.984375 -12.9375 L 13.75 -12.9375 L 8.890625 -8.09375 L 13.75 -3.234375 L 16.984375 -3.234375 L 16.984375 0 L 13.109375 0 C 12.648438 0 12.253906 -0.160156 11.921875 -0.484375 L 5.9375 -6.46875 L 4.046875 -6.46875 L 4.046875 0 L 0.8125 0 L 0.8125 -16.171875 L 4.046875 -16.171875 L 4.046875 -9.703125 L 5.9375 -9.703125 L 11.921875 -15.6875 C 12.253906 -16.007812 12.648438 -16.171875 13.109375 -16.171875 Z M 16.984375 -16.171875 "/></g></g></g></svg>